<?xml version="1.0" encoding="UTF-8" standalone="no"?> <!-- Created with Vectornator for iOS (http://vectornator.io/) --><!DOCTYPE svg PUBLIC "-//W3C//DTD SVG 1.1//EN" "http://www.w3.org/Graphics/SVG/1.1/DTD/svg11.dtd">
<svg height="100%" style="fill-rule:nonzero;clip-rule:evenodd;stroke-linecap:round;stroke-linejoin:round;" xmlns:xlink="http://www.w3.org/1999/xlink" xmlns="http://www.w3.org/2000/svg" xml:space="preserve" width="100%" xmlns:vectornator="http://vectornator.io" version="1.1" viewBox="0 0 50 50">
<metadata>
<vectornator:setting key="DimensionsVisible" value="1"/>
<vectornator:setting key="PencilOnly" value="0"/>
<vectornator:setting key="SnapToPoints" value="0"/>
<vectornator:setting key="OutlineMode" value="0"/>
<vectornator:setting key="CMYKEnabledKey" value="0"/>
<vectornator:setting key="RulersVisible" value="1"/>
<vectornator:setting key="SnapToEdges" value="0"/>
<vectornator:setting key="GuidesVisible" value="1"/>
<vectornator:setting key="DisplayWhiteBackground" value="0"/>
<vectornator:setting key="doHistoryDisabled" value="0"/>
<vectornator:setting key="SnapToGuides" value="1"/>
<vectornator:setting key="TimeLapseWatermarkDisabled" value="0"/>
<vectornator:setting key="Units" value="Points"/>
<vectornator:setting key="DynamicGuides" value="0"/>
<vectornator:setting key="IsolateActiveLayer" value="0"/>
<vectornator:setting key="SnapToGrid" value="0"/>
</metadata>
<defs>
<path d="M30.9573+7.28014C29.086+6.66887+27.0882+6.34098+25.0131+6.34098L25.0131+6.34098L25.0131+6.34098L25.0131+6.34098C24.6922+6.34098+24.3737+6.34801+24.0575+6.3644C22.3408+6.44871+20.685+6.75787+19.1158+7.26375C18.7832+6.73913+18.5092+6.22154+18.3172+5.70394C20.418+4.9943+22.671+4.60786+25.0131+4.60786C27.1678+4.60786+29.2429+4.93341+31.1985+5.53766C31.1025+6.04354+31.0158+6.62671+30.9573+7.28014" id="Mask"/>
<radialGradient cx="0" r="1" id="RadialGradient" gradientUnits="userSpaceOnUse" gradientTransform="matrix(21.9607 0 0 21.9606 274.941 85.1322)" cy="0">
<stop stop-color="#469ddc" offset="0"/>
<stop stop-color="#469ddc" offset="0.851648"/>
<stop stop-color="#17354c" offset="1"/>
</radialGradient>
<path d="M43.7496+21.4121C42.8713+17.3908+40.733+13.8402+37.768+11.196C38.0514+10.6433+38.3605+10.1468+38.7095+9.71821C39.0842+10.0438+39.4472+10.381+39.7962+10.7323C42.506+13.4421+44.471+16.8825+45.3727+20.7399C44.8879+20.9132+44.3422+21.1334+43.7496+21.4121" id="Mask_2"/>
<radialGradient cx="0" r="1" id="RadialGradient_2" gradientUnits="userSpaceOnUse" gradientTransform="matrix(21.9607 0 0 21.9606 274.941 85.1322)" cy="0">
<stop stop-color="#59c135" offset="0"/>
<stop stop-color="#59c135" offset="0.851648"/>
<stop stop-color="#263e1d" offset="1"/>
</radialGradient>
<path d="M39.4332+40.6535C39.0374+40.3246+38.5713+39.9651+38.0303+39.5955C40.9438+36.901+43.0189+33.3139+43.8222+29.2685C44.026+29.2573+44.2274+29.2512+44.4241+29.2512C44.8246+29.2512+45.2064+29.2762+45.5717+29.332C44.7895+33.5755+42.7285+37.3664+39.7962+40.2982C39.6768+40.4181+39.555+40.5366+39.4332+40.6535" id="Mask_3"/>
<radialGradient cx="0" r="1" id="RadialGradient_3" gradientUnits="userSpaceOnUse" gradientTransform="matrix(21.9607 0 0 21.9606 274.941 85.1322)" cy="0">
<stop stop-color="#f9b116" offset="0"/>
<stop stop-color="#f9b116" offset="0.851648"/>
<stop stop-color="#543c17" offset="1"/>
</radialGradient>
<path d="M25.0131+46.4217C23.0153+46.4215+21.0831+46.1416+19.254+45.6186C19.3383+45.1116+19.4109+44.5265+19.4577+43.8731C21.2166+44.4047+23.0809+44.6905+25.0131+44.6905C27.2147+44.6905+29.3295+44.3197+31.2969+43.6377C31.6412+44.1553+31.9245+44.668+32.1283+45.1806C29.908+45.984+27.5121+46.4215+25.0131+46.4217" id="Mask_4"/>
<radialGradient cx="0" r="1" id="RadialGradient_4" gradientUnits="userSpaceOnUse" gradientTransform="matrix(21.9607 0 0 21.9606 274.941 85.1322)" cy="0">
<stop stop-color="#f47216" offset="0"/>
<stop stop-color="#f47216" offset="0.851648"/>
<stop stop-color="#512915" offset="1"/>
</radialGradient>
<path d="M11.6563+41.5992C11.1622+41.1874+10.6867+40.7535+10.23+40.2982C7.52025+37.5861+5.55058+34.1388+4.65122+30.2782C5.13603+30.1044+5.68173+29.8838+6.27662+29.6051C7.18065+33.7702+9.4384+37.4294+12.5651+40.1012C12.2934+40.6595+11.9959+41.1638+11.6563+41.5992" id="Mask_5"/>
<radialGradient cx="0" r="1" id="RadialGradient_5" gradientUnits="userSpaceOnUse" gradientTransform="matrix(21.9607 0 0 21.9606 274.941 85.1322)" cy="0">
<stop stop-color="#e2293a" offset="0"/>
<stop stop-color="#e2293a" offset="0.851648"/>
<stop stop-color="#4a171a" offset="1"/>
</radialGradient>
<path d="M5.61381+21.7657C5.21098+21.7657+4.82454+21.7423+4.45683+21.6838C5.24142+17.447+7.30244+13.6599+10.23+10.7323C10.4549+10.5075+10.6844+10.2897+10.9186+10.0766C11.305+10.4138+11.7641+10.7815+12.2981+11.1633C9.22996+13.8824+7.04013+17.5711+6.2087+21.7493C6.00728+21.7611+5.8082+21.7657+5.61381+21.7657" id="Mask_6"/>
<radialGradient cx="0" r="1" id="RadialGradient_6" gradientUnits="userSpaceOnUse" gradientTransform="matrix(21.9607 0 0 21.9606 274.941 85.1322)" cy="0">
<stop stop-color="#922a99" offset="0"/>
<stop stop-color="#922a99" offset="0.851648"/>
<stop stop-color="#2f192f" offset="1"/>
</radialGradient>
<path d="M12.298+11.1633C11.7641+10.7815+11.305+10.4138+10.9186+10.0765C13.0335+8.14436+15.5441+6.64076+18.3171+5.70394C18.5092+6.22153+18.7832+6.73912+19.1158+7.26374C16.57+8.08815+14.2537+9.4278+12.298+11.1633" id="Mask_7"/>
<radialGradient cx="0" r="1" id="RadialGradient_7" gradientUnits="userSpaceOnUse" gradientTransform="matrix(21.9607 0 0 21.9606 274.941 85.1322)" cy="0">
<stop stop-color="#ffffff" offset="0"/>
<stop stop-color="#ffffff" offset="0.851648"/>
<stop stop-color="#545557" offset="1"/>
</radialGradient>
<path d="M37.768+11.1961C35.8147+9.45591+33.5031+8.10923+30.9573+7.28015C31.0158+6.62672+31.1025+6.04354+31.1985+5.53766C33.9973+6.40422+36.5454+7.84224+38.7095+9.71822C38.3605+10.1468+38.0514+10.6433+37.768+11.1961" id="Mask_8"/>
<radialGradient cx="0" r="1" id="RadialGradient_8" gradientUnits="userSpaceOnUse" gradientTransform="matrix(21.9607 0 0 21.9606 274.941 85.1322)" cy="0">
<stop stop-color="#ffffff" offset="0"/>
<stop stop-color="#ffffff" offset="0.851648"/>
<stop stop-color="#545557" offset="1"/>
</radialGradient>
<path d="M45.5717+29.332C45.2064+29.2762+44.8246+29.2512+44.4241+29.2512C44.2274+29.2512+44.026+29.2573+43.8222+29.2685C44.0635+28.0551+44.1899+26.7997+44.1899+25.5156C44.1899+24.1078+44.0377+22.7353+43.7496+21.4121C44.3422+21.1334+44.8879+20.9132+45.3727+20.7399C45.731+22.2716+45.9207+23.8712+45.9207+25.5154C45.9207+26.8189+45.8013+28.0949+45.5717+29.332" id="Mask_9"/>
<radialGradient cx="0" r="1" id="RadialGradient_9" gradientUnits="userSpaceOnUse" gradientTransform="matrix(21.9607 0 0 21.9606 274.941 85.1322)" cy="0">
<stop stop-color="#ffffff" offset="0"/>
<stop stop-color="#ffffff" offset="0.851648"/>
<stop stop-color="#545557" offset="1"/>
</radialGradient>
<path d="M32.1283+45.1806C31.9245+44.668+31.6411+44.1553+31.2969+43.6377C33.824+42.762+36.1098+41.3734+38.0303+39.5955C38.5713+39.9651+39.0374+40.3246+39.4332+40.6535C37.3558+42.6315+34.8755+44.1862+32.1283+45.1806" id="Mask_10"/>
<radialGradient cx="0" r="1" id="RadialGradient_10" gradientUnits="userSpaceOnUse" gradientTransform="matrix(21.9607 0 0 21.9606 274.941 85.1322)" cy="0">
<stop stop-color="#ffffff" offset="0"/>
<stop stop-color="#ffffff" offset="0.851648"/>
<stop stop-color="#545557" offset="1"/>
</radialGradient>
<path d="M19.254+45.6186C16.4318+44.812+13.8555+43.4269+11.6563+41.5992C11.9959+41.1638+12.2934+40.6595+12.565+40.1012C14.5535+41.799+16.8908+43.0976+19.4577+43.8731C19.4109+44.5265+19.3383+45.1116+19.254+45.6186" id="Mask_11"/>
<radialGradient cx="0" r="1" id="RadialGradient_11" gradientUnits="userSpaceOnUse" gradientTransform="matrix(21.9607 0 0 21.9606 274.941 85.1322)" cy="0">
<stop stop-color="#ffffff" offset="0"/>
<stop stop-color="#ffffff" offset="0.851648"/>
<stop stop-color="#545557" offset="1"/>
</radialGradient>
<path d="M4.65121+30.2782C4.29522+28.7488+4.10785+27.1543+4.10785+25.5154C4.10785+24.2064+4.2273+22.9251+4.45682+21.6838C4.82452+21.7423+5.21096+21.7657+5.6138+21.7657C5.80819+21.7657+6.00726+21.7611+6.20868+21.7493C5.96511+22.9672+5.83864+24.2265+5.83864+25.5156L5.83864+25.5156L5.83864+25.5156C5.83864+26.9187+5.99087+28.2877+6.2766+29.6051C5.68172+29.8838+5.13602+30.1044+4.65121+30.2782" id="Mask_12"/>
<radialGradient cx="0" r="1" id="RadialGradient_12" gradientUnits="userSpaceOnUse" gradientTransform="matrix(21.9607 0 0 21.9606 274.941 85.1322)" cy="0">
<stop stop-color="#ffffff" offset="0"/>
<stop stop-color="#ffffff" offset="0.851648"/>
<stop stop-color="#545557" offset="1"/>
</radialGradient>
<path d="M24.9686+25.5662C24.9803+25.5519+24.992+25.5381+25.0061+25.5243C25.0061+25.5247+25.0084+25.5252+25.0108+25.5254C24.9991+25.5371+24.9873+25.5488+24.9756+25.5603C24.9733+25.5622+24.9709+25.5643+24.9686+25.5662M25.0037+25.4887C25.0014+25.4828+24.9991+25.4767+24.9967+25.4706C24.9967+25.4676+24.9944+25.4645+24.9944+25.4615C24.9991+25.4706+25.0014+25.4795+25.0037+25.4887" id="Mask_13"/>
<path d="M25.615+25.5554C25.3878+25.5554+25.1911+25.5381+25.0295+25.5065C25.0506+25.4854+25.074+25.4638+25.0951+25.4416C28.7557+22.8197+28.5801+19.4986+26.3645+16.4141C24.1981+12.8753+20.8466+9.99223+19.1158+7.26374C20.685+6.75785+22.3408+6.4487+24.0576+6.36439C24.3737+6.348+24.6923+6.34097+25.0131+6.34097L25.0131+6.34097C27.0882+6.34097+29.086+6.66886+30.9573+7.28013C30.8168+8.81183+30.8261+10.7276+31.2172+12.9057C32.2431+18.5899+31.7817+22.3723+29.99+23.886C28.5051+25.1392+26.7205+25.5554+25.615+25.5554M25.0459+25.5158C25.0389+25.5142+25.0342+25.5125+25.0272+25.5109C25.0272+25.5104+25.0272+25.5102+25.0272+25.5097C25.0272+25.509+25.0272+25.5083+25.0295+25.5076C25.0342+25.5104+25.0412+25.513+25.0459+25.5158" id="Mask_14"/>
<path d="M30.175+29.1807C29.7277+29.1807+29.3132+29.1146+28.9384+28.9821C26.7252+28.2026+25.3434+26.4274+25.0272+25.5205C25.0272+25.5172+25.0272+25.514+25.0272+25.5109C25.0342+25.5125+25.0389+25.5142+25.0459+25.5158C26.1842+26.032+27.2217+26.269+28.1609+26.2693C30.6411+26.2695+32.4234+24.6094+33.5476+22.0749C35.5009+18.4166+36.2925+14.0697+37.768+11.196C40.7331+13.8402+42.8714+17.3908+43.7496+21.4121C42.3561+22.0679+40.7096+23.0445+39.0304+24.4844C38.7634+24.712+38.5011+24.9317+38.2434+25.143C38.2083+25.1397+38.1708+25.1378+38.1334+25.1378C37.5385+25.1378+37.0443+25.5753+36.9553+26.1468C34.2338+28.1642+31.9339+29.1807+30.175+29.1807" id="Mask_15"/>
<path d="M38.0303+39.5956C36.974+38.8723+35.6367+38.1095+34.0137+37.4598C36.3089+35.6012+38.0186+33.0465+38.8196+30.117C40.6253+29.7252+42.3233+29.3526+43.8222+29.2685C43.0189+33.3139+40.9438+36.901+38.0303+39.5956M31.3109+36.4614C26.9008+34.7185+24.4089+32.7083+24.0107+30.6541C23.5634+28.3511+24.3948+26.2601+25.0178+25.5292C25.0037+25.5397+24.9897+25.55+24.9756+25.5603C24.9873+25.5489+24.9991+25.5371+25.0108+25.5254C25.0131+25.5264+25.0178+25.5271+25.0201+25.528L25.0201+25.528L25.0201+25.528C25.0201+25.5252+25.0178+25.5222+25.0178+25.5193C25.0201+25.5161+25.0225+25.513+25.0272+25.5097C25.0272+25.5102+25.0272+25.5104+25.0272+25.5109C25.0272+25.514+25.0272+25.5172+25.0272+25.5205C25.0272+25.52+25.0272+25.5196+25.0272+25.5193C25.4464+29.5779+27.8751+31.2059+31.0908+31.2061C31.4842+31.2061+31.8871+31.182+32.3016+31.1349C33.5851+31.0829+34.8685+30.9014+36.1262+30.6702C35.5219+32.2176+34.6039+33.6072+33.4469+34.7644C32.8028+35.408+32.0861+35.978+31.3109+36.4614" id="Mask_16"/>
<path d="M25.0131+44.6905C23.0809+44.6905+21.2166+44.4047+19.4577+43.8731C19.5444+42.6259+19.5303+41.1301+19.2868+39.4506C21.0386+40.2174+22.9779+40.6429+25.0131+40.6432C26.2052+40.6432+27.3599+40.4977+28.4677+40.2237C29.5544+41.4078+30.5615+42.5332+31.2969+43.6377C29.3295+44.3197+27.2147+44.6905+25.0131+44.6905M25.0131+38.2578C22.7179+38.2573+20.5796+37.6111+18.7598+36.4895C18.0314+31.8019+18.5045+28.6345+20.0737+27.2504C21.5703+25.9304+23.4041+25.4873+24.5002+25.4873C24.6923+25.4873+24.8632+25.5008+25.0037+25.5257L25.0037+25.5257L25.0037+25.5257C25.0014+25.5243+24.9967+25.5229+24.9944+25.5212C24.9967+25.5224+25.0014+25.5233+25.0061+25.5243C24.992+25.5381+24.9803+25.5519+24.9686+25.5662C21.3291+28.2692+21.5679+31.5967+23.8561+34.6445C24.6571+35.893+25.6103+37.0551+26.5823+38.1554C26.0694+38.2229+25.5471+38.2575+25.0131+38.2578" id="Mask_17"/>
<path d="M12.5651+40.1012C9.4384+37.4294+7.18065+33.7702+6.27661+29.6051C7.59051+28.9882+9.12924+28.0872+10.7078+26.7801C10.8132+30.1693+12.0943+33.2612+14.16+35.6611C13.6611+37.3006+13.181+38.8388+12.5651+40.1012M15.0383+32.8699C13.804+30.9923+13.0873+28.7481+13.0873+26.3304C13.0873+25.895+12.8531+25.5144+12.5042+25.3062C15.4762+23.007+17.9729+21.8477+19.8512+21.8477C20.3009+21.8477+20.7154+21.9133+21.0925+22.0468C23.3058+22.8267+24.6852+24.605+25.0014+25.5121L25.0014+25.5121L25.0014+25.5121C24.9991+25.4983+24.9967+25.4844+24.9967+25.4706C24.9991+25.4767+25.0014+25.4828+25.0037+25.4887C25.0061+25.4997+25.0108+25.5109+25.0131+25.5219C25.0155+25.521+25.0155+25.52+25.0178+25.5193C25.0178+25.5222+25.0201+25.5252+25.0201+25.528C25.0178+25.5271+25.0131+25.5264+25.0108+25.5254C25.0084+25.5252+25.0061+25.5247+25.0061+25.5243C25.0014+25.5233+24.9967+25.5224+24.9944+25.5212C23.8866+25.046+22.8818+24.8273+21.9708+24.8273C19.4273+24.8273+17.6426+26.5377+16.5536+29.1364C15.947+30.3353+15.4622+31.6038+15.0383+32.8699" id="Mask_18"/>
<path d="M25.0131+25.5219C25.0108+25.5109+25.0061+25.4997+25.0037+25.4887C25.0014+25.4795+24.9991+25.4706+24.9944+25.4615C24.5634+21.4378+22.1394+19.8218+18.9331+19.8218C18.5443+19.8218+18.1415+19.8453+17.7316+19.8921C13.5862+20.056+9.43371+21.5713+6.20869+21.7493C7.04012+17.5711+9.22995+13.8824+12.2981+11.1633C13.5487+12.0579+15.2022+13.0205+17.2773+13.784C22.6992+15.7748+25.7274+18.0887+26.1256+20.4003C26.5261+22.7119+25.6478+24.7842+25.0108+25.5018C25.0389+25.4816+25.067+25.4617+25.0951+25.4416C25.074+25.4638+25.0506+25.4854+25.0295+25.5065C25.0272+25.5062+25.0248+25.5058+25.0248+25.5053C25.0248+25.506+25.0272+25.5069+25.0295+25.5076C25.0272+25.5083+25.0272+25.509+25.0272+25.5097C25.0225+25.513+25.0201+25.5161+25.0178+25.5193C25.0155+25.52+25.0155+25.521+25.0131+25.5219" id="Mask_19"/>
<path d="M25.0108+25.5018C25.6478+24.7842+26.5261+22.7119+26.1256+20.4003C25.7275+18.0887+22.6992+15.7748+17.2773+13.784C15.2022+13.0205+13.5487+12.0579+12.2981+11.1633C14.2537+9.42779+16.57+8.08814+19.1158+7.26374C20.8466+9.99223+24.1981+12.8753+26.3645+16.4141C28.5801+19.4986+28.7557+22.8197+25.0951+25.4416C25.067+25.4617+25.0389+25.4816+25.0108+25.5018" id="Mask_20"/>
<path d="M28.1609+26.2693C27.2217+26.269+26.1842+26.032+25.0459+25.5158C25.0412+25.513+25.0342+25.5104+25.0295+25.5076C25.0272+25.5069+25.0248+25.506+25.0248+25.5053C25.0248+25.5058+25.0272+25.5062+25.0295+25.5065C25.1911+25.5381+25.3879+25.5554+25.615+25.5554C26.7205+25.5554+28.5051+25.1392+29.99+23.886C31.7817+22.3723+32.2431+18.5899+31.2172+12.9058C30.8261+10.7276+30.8168+8.81185+30.9573+7.28014C33.5031+8.10923+35.8147+9.45591+37.768+11.1961C36.2925+14.0698+35.5009+18.4166+33.5476+22.0749C32.4234+24.6095+30.6411+26.2695+28.1609+26.2693" id="Mask_21"/>
<path d="M31.0908+31.2061C27.8751+31.2059+25.4464+29.5779+25.0272+25.5193C25.0272+25.5196+25.0272+25.5201+25.0272+25.5205C25.3433+26.4274+26.7252+28.2026+28.9384+28.9821C29.3131+29.1146+29.7277+29.1807+30.175+29.1807C31.9339+29.1807+34.2338+28.1642+36.9553+26.1468C36.9459+26.2065+36.9412+26.2679+36.9412+26.3304L36.9412+26.3304C36.9412+27.863+36.6532+29.3261+36.1262+30.6702C34.8685+30.9014+33.5851+31.0829+32.3016+31.1349C31.8871+31.182+31.4842+31.2061+31.0908+31.2061M38.8196+30.117C39.1498+28.9109+39.3255+27.6412+39.3255+26.3304C39.3255+25.7086+38.85+25.1983+38.2434+25.143C38.5011+24.9317+38.7634+24.712+39.0304+24.4844C40.7096+23.0445+42.3561+22.0679+43.7496+21.4121C44.0377+22.7354+44.1899+24.1078+44.1899+25.5156C44.1899+26.7997+44.0635+28.0551+43.8222+29.2685C42.3233+29.3526+40.6253+29.7252+38.8196+30.117" id="Mask_22"/>
<path d="M31.2969+43.6377C30.5615+42.5332+29.5544+41.4078+28.4677+40.2237C30.5287+39.7129+32.414+38.7555+34.0137+37.4598C35.6367+38.1095+36.974+38.8723+38.0303+39.5955C36.1098+41.3734+33.824+42.762+31.2969+43.6377M26.5823+38.1554C25.6103+37.0551+24.6571+35.893+23.8561+34.6444C21.5679+31.5967+21.329+28.2691+24.9686+25.5662C24.971+25.5643+24.9733+25.5622+24.9756+25.5603C24.9897+25.55+25.0037+25.5397+25.0178+25.5292C24.3948+26.2601+23.5634+28.3511+24.0107+30.6541C24.4089+32.7083+26.9008+34.7185+31.3109+36.4614C29.9033+37.3385+28.3014+37.9299+26.5823+38.1554" id="Mask_23"/>
<path d="M19.4577+43.8731C16.8908+43.0976+14.5535+41.7989+12.565+40.1012C13.181+38.8388+13.6611+37.3006+14.16+35.6611C15.5535+37.2797+17.303+38.5835+19.2868+39.4506C19.5303+41.1301+19.5444+42.6259+19.4577+43.8731M18.7598+36.4895C17.9682+36+17.2375+35.4204+16.5793+34.7644C16.0032+34.1875+15.4856+33.553+15.0383+32.8699C15.4622+31.6038+15.947+30.3353+16.5536+29.1364C17.6426+26.5377+19.4273+24.8273+21.9708+24.8273C22.8818+24.8273+23.8866+25.046+24.9944+25.5212C24.9967+25.5229+25.0014+25.5243+25.0037+25.5257C24.8632+25.5008+24.6922+25.4873+24.5002+25.4873C23.4041+25.4873+21.5703+25.9304+20.0737+27.2503C18.5045+28.6345+18.0314+31.8019+18.7598+36.4895" id="Mask_24"/>
<path d="M6.27661+29.6051C5.99088+28.2876+5.83865+26.9187+5.83865+25.5156L5.83865+25.5156C5.83865+24.2265+5.96512+22.9672+6.20869+21.7493C9.43371+21.5713+13.5862+20.056+17.7316+19.8921C18.1415+19.8452+18.5443+19.8218+18.9331+19.8218C22.1394+19.8218+24.5634+21.4378+24.9944+25.4615C24.9944+25.4645+24.9967+25.4676+24.9967+25.4706C24.9967+25.4844+24.9991+25.4983+25.0014+25.5121C24.6852+24.605+23.3058+22.8267+21.0925+22.0468C20.7154+21.9133+20.3009+21.8477+19.8512+21.8477C17.9729+21.8477+15.4762+23.007+12.5042+25.3062C12.3262+25.1994+12.1177+25.1378+11.8929+25.1378C11.2348+25.1378+10.7008+25.6716+10.7008+26.3304C10.7008+26.481+10.7031+26.6309+10.7078+26.7801C9.12924+28.0872+7.59051+28.9882+6.27661+29.6051" id="Mask_25"/>
<path d="M36.9553+26.1468C37.0443+25.5753+37.5385+25.1378+38.1334+25.1378C38.1708+25.1378+38.2083+25.1397+38.2434+25.143C37.8031+25.5013+37.3745+25.836+36.9553+26.1468" id="Mask_26"/>
<path d="M34.0137+37.4598C33.6858+37.3289+33.3485+37.2027+32.9972+37.0821C32.407+36.8795+31.8449+36.6724+31.3109+36.4614C32.0861+35.978+32.8028+35.408+33.4469+34.7644C34.6039+33.6071+35.5219+32.2176+36.1262+30.6702C37.0419+30.5018+37.9436+30.3072+38.8196+30.117C38.0186+33.0465+36.3089+35.6012+34.0137+37.4598" id="Mask_27"/>
<path d="M25.0131+40.6431C22.9779+40.6429+21.0386+40.2174+19.2868+39.4506C19.2282+39.0616+19.1603+38.6622+19.0783+38.2542C18.9542+37.6439+18.8488+37.0556+18.7598+36.4895C20.5796+37.6111+22.7179+38.2573+25.0131+38.2578C25.5471+38.2575+26.0694+38.2229+26.5823+38.1554C27.2123+38.8683+27.854+39.5553+28.4677+40.2237C27.3599+40.4977+26.2052+40.6431+25.0131+40.6431" id="Mask_28"/>
<path d="M14.16+35.6611C12.0943+33.2612+10.8132+30.1693+10.7078+26.7801C10.8038+26.7007+10.8998+26.6196+10.9959+26.537C11.5111+26.0957+12.0147+25.6854+12.5041+25.3062C12.8531+25.5144+13.0873+25.895+13.0873+26.3304C13.0873+28.7481+13.804+30.9922+15.0383+32.8699C14.7221+33.8116+14.4387+34.7519+14.16+35.6611" id="Mask_29"/>
<path d="M36.1262+30.6702C36.6532+29.3261+36.9412+27.863+36.9412+26.3304L36.9412+26.3304C36.9412+26.2679+36.9459+26.2065+36.9553+26.1468C37.3745+25.836+37.8031+25.5013+38.2434+25.143C38.85+25.1983+39.3255+25.7086+39.3255+26.3304C39.3255+27.6413+39.1498+28.9109+38.8196+30.117C37.9436+30.3072+37.0419+30.5018+36.1262+30.6702" id="Mask_30"/>
<path d="M28.4677+40.2237C27.854+39.5553+27.2123+38.8683+26.5823+38.1554C28.3014+37.9299+29.9033+37.3385+31.3109+36.4614C31.8449+36.6724+32.407+36.8795+32.9972+37.082C33.3485+37.2027+33.6858+37.3289+34.0137+37.4598C32.414+38.7554+30.5287+39.7129+28.4677+40.2237" id="Mask_31"/>
<path d="M19.2868+39.4506C17.303+38.5835+15.5535+37.2797+14.16+35.6611C14.4387+34.7519+14.7221+33.8116+15.0383+32.8699C15.4856+33.553+16.0032+34.1875+16.5793+34.7644C17.2375+35.4204+17.9682+36+18.7598+36.4895C18.8488+37.0556+18.9542+37.6439+19.0783+38.2542C19.1603+38.6622+19.2282+39.0616+19.2868+39.4506" id="Mask_32"/>
<path d="M10.7078+26.7801C10.7031+26.6309+10.7008+26.481+10.7008+26.3304C10.7008+25.6716+11.2348+25.1378+11.8929+25.1378C12.1177+25.1378+12.3262+25.1994+12.5042+25.3062C12.0147+25.6854+11.5111+26.0957+10.9959+26.537C10.8998+26.6196+10.8038+26.7007+10.7078+26.7801" id="Mask_33"/>
</defs>
<g id="g10" vectornator:layerName="g10">
<g opacity="1">
<path d="M16.9283+4.64533C16.9283+4.64533+15.3872+5.54702+18.0947+8.81887C20.8021+12.0907+24.1864+14.948+25.8422+17.543C27.4957+20.138+26.1888+24.2839+25.0131+25.5156C25.6619+25.7315+26.1701+25.7505+26.1701+25.7505L28.3599+25.7505L30.9456+24.4249C30.9456+24.4249+32.5546+19.2925+32.4983+18.7843C32.4398+18.2761+32.5358+17.543+32.5358+17.543L31.7348+8.68772L32.3344+5.31048L31.2805+4.25655L24.0107+3.95677L16.9283+4.64533" opacity="1" fill="#469ddc"/>
<path d="M39.1264+8.25678C39.1264+8.25678+37.583+7.35509+36.063+11.3202C34.5406+15.2853+33.7115+19.6368+32.2618+22.3513C30.8144+25.0662+26.6689+25.9287+25.0201+25.5093C25.1513+26.1807+25.2731+26.6658+25.2731+26.6658L26.3481+28.5741L28.7721+30.1761C28.7721+30.1761+34.0324+29.0577+34.4469+28.7593C34.8615+28.461+35.5477+28.1832+35.5477+28.1832L42.8713+23.1405L46.1081+22.0046L46.5086+20.5713L43.2016+14.0885L39.1264+8.25678" opacity="1" fill="#59c135"/>
<path d="M47.0871+27.6447C47.0871+27.6447+46.97+25.8622+42.8315+26.8196C38.6954+27.7771+34.6249+29.5245+31.5639+29.8435C28.5028+30.1618+25.2848+27.3958+25.0272+25.5093C24.5424+25.9927+24.0763+26.4653+24.0763+26.4653L23.0973+28.4239L23.1254+31.329C23.1254+31.329+26.9968+35.0637+27.4746+35.2403C27.9547+35.4171+28.5684+35.8293+28.5684+35.8293L36.8452+39.0772L39.5995+41.124L41.0117+40.6534L44.5342+34.2866L47.0871+27.6447" opacity="1" fill="#f9b116"/>
<path d="M35.4728+45.0914C35.4728+45.0914+36.885+43.997+33.7771+41.1036C30.6668+38.2107+26.9406+35.8157+24.9639+33.4575C22.9872+31.0991+23.7297+26.8777+25.0131+25.5156C24.3433+25.3852+23.5727+25.3622+23.5727+25.3622L21.4016+25.6458L19.0104+27.2956C19.0104+27.2956+18.0806+32.5935+18.2047+33.0893C18.3242+33.5854+18.3265+34.3248+18.3265+34.3248L18.1696+43.0138L18.0689+46.072L21.2916+47.337L28.5403+46.6924L35.4728+45.0914" opacity="1" fill="#f47216"/>
<path d="M14.5137+45.2301C14.5137+45.2301+16.2116+45.7875+16.8698+41.5919C17.5279+37.3968+17.4272+32.9685+18.275+30.0102C19.1228+27.052+21.2611+24.5757+25.0201+25.528C24.7532+24.8987+24.2613+23.6352+24.2613+23.6352L22.7554+22.6862L20.0503+21.6276C20.0503+21.6276+14.7268+22.1779+14.3848+22.5574C14.0406+22.9344+11.8273+23.3593+11.8273+23.3593L3.85492+28.3233L4.81048+33.2477L4.71914+34.7339L9.30725+40.3801L14.5137+45.2301" opacity="1" fill="#e2293a"/>
<path d="M2.67217+27.9382C2.67217+27.9382+3.15932+29.6566+7.00498+27.8544C10.8483+26.0517+15.6191+22.3138+18.5467+21.3606C21.4719+20.4073+24.2988+23.171+25.0131+25.5219C25.5026+25.0519+26.067+24.2558+26.067+24.2558L26.8563+21.9063L26.5565+19.0279C26.5565+19.0279+22.2846+14.7583+21.7811+14.6857C21.2752+14.6131+19.1486+13.1821+19.1486+13.1821L11.5275+8.81887L7.17127+13.1891L5.88782+13.9456L3.77762+20.9085L2.67217+27.9382" opacity="1" fill="#922999"/>
<path d="M18.0455+4.68982C15.0804+5.68285+12.3941+7.28716+10.1434+9.35987C11.291+10.4958+13.6354+12.4444+17.2773+13.784C22.6992+15.7748+25.7274+18.0887+26.1256+20.4003C26.5261+22.7119+25.6478+24.7842+25.0108+25.5018C28.7581+22.8712+28.5965+19.522+26.3645+16.4141C23.5072+11.7488+18.5912+8.22163+18.0455+4.68982" opacity="1" fill="#ffffff"/>
<path d="M39.4496+8.96642C37.0911+6.9101+34.3486+5.4065+31.4233+4.51418C31.0229+6.07867+30.5287+9.08821+31.2172+12.9058C32.2431+18.5899+31.7817+22.3723+29.99+23.886C28.1983+25.3997+25.9663+25.6922+25.0248+25.5053C29.189+27.4056+31.9972+25.5732+33.5476+22.0749C36.1239+17.2479+36.6789+11.2242+39.4496+8.96642" opacity="1" fill="#ffffff"/>
<path d="M46.5929+29.5908C47.1737+26.517+47.0824+23.3897+46.3704+20.4144C44.82+20.8617+41.9743+21.9578+39.0304+24.4844C34.646+28.2448+31.1517+29.7613+28.9384+28.9821C26.7252+28.2024+25.3434+26.4259+25.0272+25.5193C25.4979+30.0732+28.4981+31.567+32.3016+31.1349C37.7657+30.9138+43.2437+28.3441+46.5929+29.5908" opacity="1" fill="#ffffff"/>
<path d="M32.4211+46.1889C35.365+45.1347+38.0162+43.4733+40.2225+41.3537C39.0514+40.2422+36.6649+38.3432+32.9972+37.082C27.5355+35.2044+24.458+32.957+24.0107+30.6541C23.5634+28.3511+24.3948+26.2601+25.0178+25.5292C21.3267+28.2389+21.5586+31.5829+23.8561+34.6444C26.8118+39.2463+31.8004+42.6702+32.4211+46.1889" opacity="1" fill="#ffffff"/>
<path d="M10.9326+42.3657C13.3309+44.3722+16.1062+45.8179+19.0502+46.6482C19.4156+45.0748+19.8465+42.0566+19.0783+38.2542C17.9331+32.593+18.3148+28.8017+20.0737+27.2503C21.8349+25.699+24.0575+25.3587+25.0037+25.5257C20.7997+23.7143+18.0314+25.6053+16.5536+29.1364C14.0804+34.0154+13.6541+40.0508+10.9326+42.3657" opacity="1" fill="#ffffff"/>
<path d="M3.43803+21.4261C2.85485+24.4987+2.94385+27.626+3.6535+30.6018C5.20628+30.1547+8.05189+29.0608+10.9959+26.537C15.3825+22.7798+18.8792+21.2645+21.0925+22.0468C23.3057+22.8267+24.6852+24.605+25.0014+25.5121C24.533+20.9577+21.5351+19.4612+17.7316+19.8921C12.2653+20.1076+6.78483+22.6745+3.43803+21.4261" opacity="1" fill="#ffffff"/>
<g opacity="1" vectornator:mask="#Mask">
<clipPath id="ClipPath">
<use xlink:href="#Mask" fill="none" overflow="visible"/>
</clipPath>
<g clip-path="url(#ClipPath)">
<path d="M280.885+66.897C279.014+66.2857+277.016+65.9578+274.941+65.9578L274.941+65.9578L274.941+65.9578L274.941+65.9578C274.62+65.9578+274.301+65.9649+273.985+65.9813C272.269+66.0656+270.613+66.3747+269.044+66.8806C268.711+66.356+268.437+65.8384+268.245+65.3208C270.346+64.6112+272.599+64.2247+274.941+64.2247C277.096+64.2247+279.171+64.5503+281.126+65.1545C281.03+65.6604+280.944+66.2436+280.885+66.897" opacity="1" fill="url(#RadialGradient)"/>
</g>
</g>
<g opacity="1" vectornator:mask="#Mask_2">
<clipPath id="ClipPath_2">
<use xlink:href="#Mask_2" fill="none" overflow="visible"/>
</clipPath>
<g clip-path="url(#ClipPath_2)">
<path d="M293.677+81.0289C292.799+77.0076+290.661+73.4571+287.696+70.8129C287.979+70.2602+288.288+69.7637+288.637+69.3351C289.012+69.6606+289.375+69.9979+289.724+70.3492C292.434+73.0589+294.399+76.4994+295.3+80.3568C294.816+80.5301+294.27+80.7502+293.677+81.0289" opacity="1" fill="url(#RadialGradient_2)"/>
</g>
</g>
<g opacity="1" vectornator:mask="#Mask_3">
<clipPath id="ClipPath_3">
<use xlink:href="#Mask_3" fill="none" overflow="visible"/>
</clipPath>
<g clip-path="url(#ClipPath_3)">
<path d="M289.361+100.27C288.965+99.9415+288.499+99.582+287.958+99.2124C290.872+96.5179+292.947+92.9308+293.75+88.8854C293.954+88.8741+294.155+88.868+294.352+88.868C294.752+88.868+295.134+88.8931+295.499+88.9488C294.717+93.1924+292.656+96.9832+289.724+99.915C289.604+100.035+289.483+100.153+289.361+100.27" opacity="1" fill="url(#RadialGradient_3)"/>
</g>
</g>
<g opacity="1" vectornator:mask="#Mask_4">
<clipPath id="ClipPath_4">
<use xlink:href="#Mask_4" fill="none" overflow="visible"/>
</clipPath>
<g clip-path="url(#ClipPath_4)">
<path d="M274.941+106.039C272.943+106.038+271.011+105.758+269.182+105.235C269.266+104.728+269.339+104.143+269.385+103.49C271.144+104.022+273.009+104.307+274.941+104.307C277.142+104.307+279.257+103.937+281.225+103.255C281.569+103.772+281.852+104.285+282.056+104.797C279.836+105.601+277.44+106.038+274.941+106.039" opacity="1" fill="url(#RadialGradient_4)"/>
</g>
</g>
<g opacity="1" vectornator:mask="#Mask_5">
<clipPath id="ClipPath_5">
<use xlink:href="#Mask_5" fill="none" overflow="visible"/>
</clipPath>
<g clip-path="url(#ClipPath_5)">
<path d="M261.584+101.216C261.09+100.804+260.614+100.37+260.158+99.915C257.448+97.2029+255.478+93.7556+254.579+89.895C255.064+89.7212+255.609+89.5006+256.204+89.2219C257.108+93.387+259.366+97.0462+262.493+99.718C262.221+100.276+261.924+100.781+261.584+101.216" opacity="1" fill="url(#RadialGradient_5)"/>
</g>
</g>
<g opacity="1" vectornator:mask="#Mask_6">
<clipPath id="ClipPath_6">
<use xlink:href="#Mask_6" fill="none" overflow="visible"/>
</clipPath>
<g clip-path="url(#ClipPath_6)">
<path d="M255.542+81.3826C255.139+81.3826+254.752+81.3592+254.385+81.3006C255.169+77.0638+257.23+73.2767+260.158+70.3492C260.383+70.1243+260.612+69.9065+260.846+69.6934C261.233+70.0307+261.692+70.3984+262.226+70.7801C259.158+73.4992+256.968+77.188+256.136+81.3662C255.935+81.3779+255.736+81.3826+255.542+81.3826" opacity="1" fill="url(#RadialGradient_6)"/>
</g>
</g>
<g opacity="1" vectornator:mask="#Mask_7">
<clipPath id="ClipPath_7">
<use xlink:href="#Mask_7" fill="none" overflow="visible"/>
</clipPath>
<g clip-path="url(#ClipPath_7)">
<path d="M262.226+70.7801C261.692+70.3984+261.233+70.0307+260.846+69.6934C262.961+67.7612+265.472+66.2576+268.245+65.3208C268.437+65.8384+268.711+66.356+269.044+66.8806C266.498+67.705+264.181+69.0447+262.226+70.7801" opacity="1" fill="url(#RadialGradient_7)"/>
</g>
</g>
<g opacity="1" vectornator:mask="#Mask_8">
<clipPath id="ClipPath_8">
<use xlink:href="#Mask_8" fill="none" overflow="visible"/>
</clipPath>
<g clip-path="url(#ClipPath_8)">
<path d="M287.696+70.8129C285.742+69.0728+283.431+67.7261+280.885+66.897C280.944+66.2436+281.03+65.6604+281.126+65.1545C283.925+66.0211+286.473+67.4591+288.637+69.3351C288.288+69.7637+287.979+70.2602+287.696+70.8129" opacity="1" fill="url(#RadialGradient_8)"/>
</g>
</g>
<g opacity="1" vectornator:mask="#Mask_9">
<clipPath id="ClipPath_9">
<use xlink:href="#Mask_9" fill="none" overflow="visible"/>
</clipPath>
<g clip-path="url(#ClipPath_9)">
<path d="M295.499+88.9488C295.134+88.8931+294.752+88.868+294.352+88.868C294.155+88.868+293.954+88.8741+293.75+88.8853C293.991+87.6719+294.118+86.4166+294.118+85.1324C294.118+83.7246+293.965+82.3522+293.677+81.0289C294.27+80.7502+294.816+80.5301+295.3+80.3568C295.659+81.8885+295.848+83.4881+295.848+85.1322C295.848+86.4358+295.729+87.7117+295.499+88.9488" opacity="1" fill="url(#RadialGradient_9)"/>
</g>
</g>
<g opacity="1" vectornator:mask="#Mask_10">
<clipPath id="ClipPath_10">
<use xlink:href="#Mask_10" fill="none" overflow="visible"/>
</clipPath>
<g clip-path="url(#ClipPath_10)">
<path d="M282.056+104.797C281.852+104.285+281.569+103.772+281.225+103.255C283.752+102.379+286.038+100.99+287.958+99.2124C288.499+99.582+288.965+99.9415+289.361+100.27C287.284+102.248+284.803+103.803+282.056+104.797" opacity="1" fill="url(#RadialGradient_10)"/>
</g>
</g>
<g opacity="1" vectornator:mask="#Mask_11">
<clipPath id="ClipPath_11">
<use xlink:href="#Mask_11" fill="none" overflow="visible"/>
</clipPath>
<g clip-path="url(#ClipPath_11)">
<path d="M269.182+105.235C266.36+104.429+263.783+103.044+261.584+101.216C261.924+100.781+262.221+100.276+262.493+99.718C264.481+101.416+266.819+102.714+269.385+103.49C269.339+104.143+269.266+104.728+269.182+105.235" opacity="1" fill="url(#RadialGradient_11)"/>
</g>
</g>
<g opacity="1" vectornator:mask="#Mask_12">
<clipPath id="ClipPath_12">
<use xlink:href="#Mask_12" fill="none" overflow="visible"/>
</clipPath>
<g clip-path="url(#ClipPath_12)">
<path d="M254.579+89.895C254.223+88.3657+254.036+86.7712+254.036+85.1322C254.036+83.8232+254.155+82.5419+254.385+81.3006C254.752+81.3592+255.139+81.3826+255.542+81.3826C255.736+81.3826+255.935+81.3779+256.136+81.3662C255.893+82.5841+255.766+83.8434+255.766+85.1324L255.766+85.1324L255.766+85.1324C255.766+86.5356+255.919+87.9045+256.204+89.2219C255.609+89.5006+255.064+89.7212+254.579+89.895" opacity="1" fill="url(#RadialGradient_12)"/>
</g>
</g>
<g opacity="1" vectornator:mask="#Mask_13">
<clipPath id="ClipPath_13">
<use xlink:href="#Mask_13" fill="none" overflow="visible"/>
</clipPath>
<g clip-path="url(#ClipPath_13)">
<use opacity="1" xlink:href="#(null)" transform="matrix(0.118269 0 0 -0.118269 73.4233 32.4934)"/>
</g>
</g>
<g opacity="1" vectornator:mask="#Mask_14">
<clipPath id="ClipPath_14">
<use xlink:href="#Mask_14" fill="none" overflow="visible"/>
</clipPath>
<g clip-path="url(#ClipPath_14)">
<use opacity="1" xlink:href="#(null)" transform="matrix(0.112458 0 0 -0.112553 8.52881 15.2758)"/>
</g>
</g>
<g opacity="1" vectornator:mask="#Mask_15">
<clipPath id="ClipPath_15">
<use xlink:href="#Mask_15" fill="none" overflow="visible"/>
</clipPath>
<g clip-path="url(#ClipPath_15)">
<use opacity="1" xlink:href="#(null)" transform="matrix(0.112557 0 0 -0.112533 7.92978 15.3252)"/>
</g>
</g>
<g opacity="1" vectornator:mask="#Mask_16">
<clipPath id="ClipPath_16">
<use xlink:href="#Mask_16" fill="none" overflow="visible"/>
</clipPath>
<g clip-path="url(#ClipPath_16)">
<use opacity="1" xlink:href="#(null)" transform="matrix(0.112521 0 0 -0.1126 7.80032 15.526)"/>
</g>
</g>
<g opacity="1" vectornator:mask="#Mask_17">
<clipPath id="ClipPath_17">
<use xlink:href="#Mask_17" fill="none" overflow="visible"/>
</clipPath>
<g clip-path="url(#ClipPath_17)">
<use opacity="1" xlink:href="#(null)" transform="matrix(0.11269 0 0 -0.112553 8.50222 15.3856)"/>
</g>
</g>
<g opacity="1" vectornator:mask="#Mask_18">
<clipPath id="ClipPath_18">
<use xlink:href="#Mask_18" fill="none" overflow="visible"/>
</clipPath>
<g clip-path="url(#ClipPath_18)">
<use opacity="1" xlink:href="#(null)" transform="matrix(0.112584 0 0 -0.112589 7.80994 15.3859)"/>
</g>
</g>
<g opacity="1" vectornator:mask="#Mask_19">
<clipPath id="ClipPath_19">
<use xlink:href="#Mask_19" fill="none" overflow="visible"/>
</clipPath>
<g clip-path="url(#ClipPath_19)">
<use opacity="1" xlink:href="#(null)" transform="matrix(0.112546 0 0 -0.11249 7.69769 15.4087)"/>
</g>
</g>
<g opacity="1" vectornator:mask="#Mask_20">
<clipPath id="ClipPath_20">
<use xlink:href="#Mask_20" fill="none" overflow="visible"/>
</clipPath>
<g clip-path="url(#ClipPath_20)">
<use opacity="1" xlink:href="#(null)" transform="matrix(0.112576 0 0 -0.112589 8.0578 15.2973)"/>
</g>
</g>
<g opacity="1" vectornator:mask="#Mask_21">
<clipPath id="ClipPath_21">
<use xlink:href="#Mask_21" fill="none" overflow="visible"/>
</clipPath>
<g clip-path="url(#ClipPath_21)">
<use opacity="1" xlink:href="#(null)" transform="matrix(0.112701 0 0 -0.1125 8.65553 15.2844)"/>
</g>
</g>
<g opacity="1" vectornator:mask="#Mask_22">
<clipPath id="ClipPath_22">
<use xlink:href="#Mask_22" fill="none" overflow="visible"/>
</clipPath>
<g clip-path="url(#ClipPath_22)">
<use opacity="1" xlink:href="#(null)" transform="matrix(0.112527 0 0 -0.112731 7.89305 15.7163)"/>
</g>
</g>
<g opacity="1" vectornator:mask="#Mask_23">
<clipPath id="ClipPath_23">
<use xlink:href="#Mask_23" fill="none" overflow="visible"/>
</clipPath>
<g clip-path="url(#ClipPath_23)">
<use opacity="1" xlink:href="#(null)" transform="matrix(0.112511 0 0 -0.112561 8.08309 15.4108)"/>
</g>
</g>
<g opacity="1" vectornator:mask="#Mask_24">
<clipPath id="ClipPath_24">
<use xlink:href="#Mask_24" fill="none" overflow="visible"/>
</clipPath>
<g clip-path="url(#ClipPath_24)">
<use opacity="1" xlink:href="#(null)" transform="matrix(0.112624 0 0 -0.112662 8.58662 15.3841)"/>
</g>
</g>
<g opacity="1" vectornator:mask="#Mask_25">
<clipPath id="ClipPath_25">
<use xlink:href="#Mask_25" fill="none" overflow="visible"/>
</clipPath>
<g clip-path="url(#ClipPath_25)">
<use opacity="1" xlink:href="#(null)" transform="matrix(0.112553 0 0 -0.112731 7.77363 15.6989)"/>
</g>
</g>
<path d="M10.23+10.7323C6.44524+14.5194+4.10786+19.7375+4.10786+25.5154C4.10786+31.2918+6.44524+36.5118+10.23+40.2982C14.0171+44.0836+19.2376+46.4212+25.0131+46.4217C30.791+46.4212+36.0091+44.0836+39.7962+40.2982C43.581+36.5118+45.9207+31.2918+45.9207+25.5154C45.9207+19.7375+43.581+14.5194+39.7962+10.7323C36.0091+6.94756+30.791+4.61019+25.0131+4.60785C19.2376+4.61019+14.0171+6.94756+10.23+10.7323M2+25.5154C2+12.805+12.3027+2.50234+25.0131+2.5C37.7235+2.50234+48.0286+12.805+48.0286+25.5154C48.0286+38.2261+37.7235+48.5291+25.0131+48.53C12.3027+48.5291+2+38.2261+2+25.5154" opacity="1" fill="#100f0d"/>
<g opacity="1" vectornator:mask="#Mask_26">
<clipPath id="ClipPath_26">
<use xlink:href="#Mask_26" fill="none" overflow="visible"/>
</clipPath>
<g clip-path="url(#ClipPath_26)">
<use opacity="1" xlink:href="#(null)" transform="matrix(0.114091 0 0 -0.113588 26.3675 20.7917)"/>
</g>
</g>
<g opacity="1" vectornator:mask="#Mask_27">
<clipPath id="ClipPath_27">
<use xlink:href="#Mask_27" fill="none" overflow="visible"/>
</clipPath>
<g clip-path="url(#ClipPath_27)">
<use opacity="1" xlink:href="#(null)" transform="matrix(0.11282 0 0 -0.112758 10.2663 16.065)"/>
</g>
</g>
<g opacity="1" vectornator:mask="#Mask_28">
<clipPath id="ClipPath_28">
<use xlink:href="#Mask_28" fill="none" overflow="visible"/>
</clipPath>
<g clip-path="url(#ClipPath_28)">
<use opacity="1" xlink:href="#(null)" transform="matrix(0.112682 0 0 -0.113121 9.28679 17.01)"/>
</g>
</g>
<g opacity="1" vectornator:mask="#Mask_29">
<clipPath id="ClipPath_29">
<use xlink:href="#Mask_29" fill="none" overflow="visible"/>
</clipPath>
<g clip-path="url(#ClipPath_29)">
<use opacity="1" xlink:href="#(null)" transform="matrix(0.113218 0 0 -0.112714 12.5403 15.7191)"/>
</g>
</g>
<g opacity="1" vectornator:mask="#Mask_30">
<clipPath id="ClipPath_30">
<use xlink:href="#Mask_30" fill="none" overflow="visible"/>
</clipPath>
<g clip-path="url(#ClipPath_30)">
<use opacity="1" xlink:href="#(null)" transform="matrix(0.113476 0 0 -0.112688 15.3597 16.3235)"/>
</g>
</g>
<g opacity="1" vectornator:mask="#Mask_31">
<clipPath id="ClipPath_31">
<use xlink:href="#Mask_31" fill="none" overflow="visible"/>
</clipPath>
<g clip-path="url(#ClipPath_31)">
<use opacity="1" xlink:href="#(null)" transform="matrix(0.112758 0 0 -0.112678 10.2546 17.2347)"/>
</g>
</g>
<g opacity="1" vectornator:mask="#Mask_32">
<clipPath id="ClipPath_32">
<use xlink:href="#Mask_32" fill="none" overflow="visible"/>
</clipPath>
<g clip-path="url(#ClipPath_32)">
<use opacity="1" xlink:href="#(null)" transform="matrix(0.113374 0 0 -0.112956 11.5971 16.2531)"/>
</g>
</g>
<g opacity="1" vectornator:mask="#Mask_33">
<clipPath id="ClipPath_33">
<use xlink:href="#Mask_33" fill="none" overflow="visible"/>
</clipPath>
<g clip-path="url(#ClipPath_33)">
<use opacity="1" xlink:href="#(null)" transform="matrix(0.112652 0 0 -0.113458 19.0446 18.8558)"/>
</g>
</g>
<path d="M10.9607+26.1009C10.9607+25.4542+11.4854+24.9296+12.1318+24.9296C12.7782+24.9296+13.3028+25.4542+13.3028+26.1009C13.3051+29.3383+14.612+32.2584+16.7339+34.3807C18.8558+36.5022+21.7764+37.8104+25.0131+37.8109C28.2522+37.8104+31.1704+36.5022+33.2946+34.3807C35.4142+32.2584+36.7234+29.3383+36.7234+26.1009L36.7234+26.1009C36.7234+25.4542+37.2481+24.9301+37.8945+24.9301C38.5409+24.9301+39.0655+25.4542+39.0655+26.1009C39.0655+33.8617+32.7747+40.1525+25.0131+40.1532C17.2515+40.1525+10.9631+33.8617+10.9607+26.1009" opacity="1" fill="#100f0d"/>
<path d="M24.6571+16.2596C27.2779+15.585+29.4865+15.0721+31.1681+14.7021C32.7911+14.3438+31.4959+14.6529+35.7608+13.8121C36.4705+13.6716+37.5502+13.4585+39.0116+13.4046C39.5807+13.3859+40.0538+13.3952+40.3817+13.4093C40.7377+13.4163+41.6113+13.4678+41.7237+13.8168C41.7425+13.8777+41.7612+14.0229+41.794+14.2548C41.8151+14.407+41.8291+14.5335+41.8361+14.6201C41.8689+15.2127+41.883+16.0277+41.8034+16.9879C41.7144+18.0489+41.5926+19.5244+40.911+21.1685C40.4895+22.185+39.9016+23.6028+38.4355+24.7814C36.7023+26.1739+34.7982+26.3737+34.0207+26.4056C32.934+26.4503+32.1424+26.2376+31.9737+26.1906C30.7184+25.8407+29.8612+25.1715+29.4138+24.7643C29.2405+24.5923+29.0602+24.4022+28.8775+24.1933C28.6738+23.9621+28.4958+23.7366+28.3365+23.5213C28.1023+23.178+27.8681+22.8009+27.6456+22.3864C26.8751+20.9554+26.491+19.5806+26.2966+18.4681C26.224+18.4283+26.1209+18.3768+25.9921+18.3346C25.793+18.2737+25.6338+18.2644+25.5049+18.2597C25.3668+18.255+25.1747+18.2597+24.9475+18.3065C24.8515+17.6226+24.7531+16.9411+24.6571+16.2596" opacity="1" fill="#469ddc"/>
<path d="M24.6665+16.2572C21.9614+16.3415+19.6966+16.4657+17.9776+16.5781C16.3217+16.6882+17.652+16.6226+13.3215+17.0043C12.6002+17.0676+11.5018+17.1636+10.0848+17.5219C9.53208+17.6601+9.08241+17.8006+8.77091+17.906C8.42897+18.0138+7.60457+18.3042+7.5952+18.6719C7.5952+18.7375+7.61628+18.8803+7.64906+19.1122C7.67249+19.2644+7.69356+19.3909+7.70996+19.4752C7.8458+20.0537+8.05893+20.8383+8.40321+21.74C8.78497+22.7353+9.31193+24.1169+10.4268+25.5065C11.113+26.3653+12.0732+27.5621+13.811+28.2846C15.865+29.1383+17.748+28.7996+18.5022+28.6137C19.5585+28.3532+20.2611+27.9281+20.4086+27.8356C21.5188+27.1494+22.1535+26.2681+22.4696+25.7524C22.5891+25.5385+22.7085+25.3057+22.8256+25.0542C22.9544+24.7757+23.0645+24.509+23.1582+24.2581C23.287+23.8623+23.4065+23.4347+23.5048+22.9766C23.8468+21.384+23.8304+19.96+23.7062+18.8382C23.7648+18.7773+23.8491+18.7+23.9639+18.6227C24.1372+18.5079+24.2871+18.4564+24.4089+18.4166C24.5424+18.3721+24.7274+18.3253+24.9569+18.3042C24.8585+17.6226+24.7625+16.9388+24.6665+16.2572" opacity="1" fill="#469ddc"/>
<path d="M27.4114+18.6391C27.395+18.5759+27.3763+18.4845+27.3575+18.3768C27.3435+18.2948+27.3294+18.2199+27.3224+18.1379C27.3107+17.9997+27.2966+17.8334+27.3575+17.6765C27.3856+17.6039+27.4301+17.536+27.5964+17.3767C27.8845+17.1074+28.1187+16.9598+28.1187+16.9598C28.5403+16.6952+28.9173+16.5594+28.9618+16.5453C31.7044+15.5804+33.5898+15.304+33.5898+15.304C35.0489+15.0885+37.0373+14.8848+39.459+14.8848C39.6042+14.8824+39.8337+14.8942+40.0913+14.9949C40.2295+15.0487+40.3419+15.0909+40.4497+15.1963C40.4965+15.2431+40.6042+15.3626+40.7213+15.9176C40.7494+16.0535+40.7846+16.2385+40.8103+16.461C40.8057+18.255+40.3466+19.604+40.007+20.391C39.5784+21.3793+38.5198+23.8263+35.9342+24.8444C34.5477+25.3905+33.2666+25.3107+32.5382+25.2036C32.2548+25.1441+31.8473+25.035+31.3906+24.8209C30.0907+24.2129+29.3834+23.2206+28.9548+22.5995C28.3389+21.7166+28.0531+20.9156+27.8587+20.3582C27.6198+19.679+27.4887+19.0817+27.4114+18.6391" opacity="1" fill="#100f0d"/>
<path d="M40.808+16.461C40.8057+18.255+40.3466+19.604+40.007+20.3933C39.5784+21.3793+38.5198+23.826+35.9342+24.8439C34.5477+25.3898+33.2666+25.3111+32.5405+25.2039C32.3321+25.1605+32.058+25.09+31.7466+24.9722C33.4188+25.1573+34.8428+24.9167+35.7234+24.4753C36.4869+24.0909+37.1567+23.5108+37.1567+23.5108C37.5689+23.1522+37.857+22.8197+38.0186+22.6182C38.1544+22.4496+38.5971+21.8852+39.1077+20.7165C39.4121+20.0186+39.8946+18.885+40.0492+17.3674C40.1382+16.4985+40.0679+15.9926+39.9976+15.6647C39.9367+15.3766+39.8571+15.1213+39.7728+14.9082C39.8712+14.9223+39.9789+14.9504+40.0913+14.9949C40.2295+15.0487+40.3419+15.0932+40.4497+15.1963C40.4965+15.2431+40.6042+15.3626+40.7213+15.9176C40.7494+16.0535+40.7846+16.2385+40.808+16.461" opacity="1" fill="#ffffff"/>
<path d="M28.6738+20.9905C28.6269+20.6837+28.5894+20.1521+28.7721+19.5384C28.8049+19.426+28.9314+19.0302+29.2569+18.5548C29.6106+18.0372+30.0626+17.632+30.791+17.1706C31.4233+16.7701+32.4164+16.2315+33.7818+15.8169C33.2689+15.92+31.4725+16.2853+30.0743+16.6694C29.8401+16.735+29.4888+16.8357+29.0579+17.0395C28.4723+17.3205+28.0437+17.6484+27.7814+17.8756C27.847+18.4447+27.9758+19.1239+28.2217+19.8616C28.3599+20.2809+28.5168+20.6579+28.6738+20.9905" opacity="1" fill="#ffffff"/>
<path d="M22.6851+19.3113C22.6828+19.2457+22.6757+19.1544+22.664+19.0443C22.6546+18.9623+22.6453+18.885+22.6289+18.8054C22.6031+18.6695+22.568+18.5056+22.4673+18.3721C22.4204+18.3112+22.3595+18.2573+22.1534+18.152C21.8021+17.9716+21.5375+17.8967+21.5375+17.8967C21.0574+17.7585+20.6569+17.7351+20.61+17.7327C17.7082+17.5711+15.8205+17.8311+15.8205+17.8311C14.3591+18.0325+12.3917+18.3908+10.0661+19.0654C9.92788+19.1052+9.71007+19.1801+9.48991+19.3487C9.37281+19.4377+9.27678+19.5127+9.20418+19.6415C9.17139+19.7001+9.10113+19.8453+9.14329+20.412C9.155+20.5479+9.17373+20.7352+9.20887+20.9554C9.71475+22.6791+10.5298+23.846+11.0778+24.5073C11.7641+25.3364+13.4644+27.3909+16.2304+27.6476C17.7152+27.7853+18.9214+27.3518+19.5912+27.0457C19.8465+26.9096+20.2095+26.6908+20.5889+26.3578C21.6663+25.4119+22.0668+24.2617+22.308+23.5459C22.65+22.5246+22.7015+21.6767+22.7343+21.0865C22.7741+20.3675+22.7343+19.7586+22.6851+19.3113" opacity="1" fill="#100f0d"/>
<path d="M9.21121+20.9554C9.71241+22.6768+10.5321+23.8466+11.0778+24.5078C11.7641+25.3359+13.4644+27.3909+16.2304+27.6471C17.7152+27.7846+18.9214+27.352+19.5912+27.0461C19.7786+26.9466+20.0222+26.8023+20.2892+26.6023C18.734+27.2464+17.2984+27.4129+16.3287+27.2344C15.4879+27.0784+14.6846+26.7077+14.6846+26.7077C14.1881+26.4798+13.8204+26.239+13.6073+26.0922C13.4293+25.9676+12.8461+25.5479+12.0311+24.568C11.5439+23.9834+10.764+23.0304+10.1925+21.6158C9.86699+20.8055+9.79204+20.2996+9.76628+19.9647C9.7452+19.6719+9.75223+19.4049+9.77331+19.1754C9.68431+19.2176+9.58828+19.2738+9.48992+19.3487C9.37281+19.4377+9.27679+19.5127+9.20419+19.6438C9.1714+19.7+9.10113+19.8429+9.14329+20.4097C9.15266+20.5479+9.1714+20.7352+9.21121+20.9554" opacity="1" fill="#ffffff"/>
<path d="M22.1277+21.9227C22.0855+21.6159+21.9755+21.0936+21.6288+20.5549C21.5656+20.4565+21.3337+20.1123+20.8887+19.7446C20.4039+19.3464+19.8582+19.0841+19.0291+18.8452C18.3101+18.6368+17.207+18.3955+15.7784+18.3768C16.3006+18.3346+18.1274+18.1847+19.5772+18.1637C19.8208+18.1613+20.1861+18.159+20.6569+18.2363C21.2986+18.3393+21.7998+18.5361+22.116+18.6813C22.212+19.248+22.2776+19.9343+22.2471+20.7118C22.2307+21.1521+22.1862+21.5573+22.1277+21.9227" opacity="1" fill="#ffffff"/>
</g>
</g>
</svg>
